<?xml version="1.0" encoding="utf-8"?>
<!-- Generator: Adobe Illustrator 25.4.1, SVG Export Plug-In . SVG Version: 6.00 Build 0)  -->
<svg version="1.1" id="google-search-ads" xmlns="http://www.w3.org/2000/svg" xmlns:xlink="http://www.w3.org/1999/xlink" x="0px"
	 y="0px" viewBox="0 0 400 400" style="enable-background:new 0 0 400 400;" xml:space="preserve">
<style type="text/css">
	.st0{fill:none;}
	.st1{fill:#515979;}
	.st2{fill:#FBBD04;}
	.st3{fill:#438EDC;}
	.st4{fill:#34A952;}
	.st5{fill:#CCCCCC;}
	.st6{fill:#979BAF;}
	.st7{fill:#D8EBFB;}
	.st8{fill:#A0D2FF;}
	.st9{fill:#9E8271;}
	.st10{fill:#FFD886;}
	.st11{fill:#FFFFFF;}
	.st12{fill:#00C853;}
	.st13{fill:#2196F3;}
	.st14{fill:#FDE1D9;}
	.st15{fill:#EF7D7D;}
</style>
<g>
	<rect class="st0" width="400" height="400"/>
	<path class="st1" d="M176.43,313.5h-5c-0.83,0-1.5-0.67-1.5-1.5s0.67-1.5,1.5-1.5h5c0.83,0,1.5,0.67,1.5,1.5
		S177.26,313.5,176.43,313.5z M162.43,313.5h-5c-0.83,0-1.5-0.67-1.5-1.5s0.67-1.5,1.5-1.5h5c0.83,0,1.5,0.67,1.5,1.5
		S163.26,313.5,162.43,313.5z M148.43,313.5h-5c-0.83,0-1.5-0.67-1.5-1.5s0.67-1.5,1.5-1.5h5c0.83,0,1.5,0.67,1.5,1.5
		S149.26,313.5,148.43,313.5z M184.99,311.51c-0.46,0-0.91-0.21-1.2-0.6c-0.5-0.66-0.36-1.6,0.3-2.1c1.14-0.85,2.05-1.99,2.64-3.28
		c0.34-0.75,1.23-1.09,1.99-0.74c0.75,0.34,1.08,1.23,0.74,1.99c-0.8,1.74-2.03,3.28-3.57,4.43
		C185.62,311.41,185.31,311.51,184.99,311.51z M189,298.79c-0.83,0-1.5-0.67-1.5-1.5v-5c0-0.83,0.67-1.5,1.5-1.5s1.5,0.67,1.5,1.5v5
		C190.5,298.11,189.83,298.79,189,298.79z M189,284.79c-0.83,0-1.5-0.67-1.5-1.5V282c0-1.44,0.26-2.84,0.78-4.17
		c0.3-0.77,1.17-1.16,1.94-0.85c0.77,0.3,1.15,1.17,0.85,1.94c-0.38,0.98-0.58,2.02-0.58,3.08v1.29
		C190.5,284.11,189.83,284.79,189,284.79z M196.04,273.94c-0.64,0-1.23-0.41-1.43-1.06c-0.24-0.79,0.2-1.63,0.99-1.88
		c1.1-0.34,2.24-0.51,3.4-0.51h2c0.83,0,1.5,0.67,1.5,1.5s-0.67,1.5-1.5,1.5h-2c-0.86,0-1.7,0.13-2.51,0.38
		C196.34,273.92,196.19,273.94,196.04,273.94z M229,273.5h-5c-0.83,0-1.5-0.67-1.5-1.5s0.67-1.5,1.5-1.5h5c0.83,0,1.5,0.67,1.5,1.5
		S229.83,273.5,229,273.5z M215,273.5h-5c-0.83,0-1.5-0.67-1.5-1.5s0.67-1.5,1.5-1.5h5c0.83,0,1.5,0.67,1.5,1.5
		S215.83,273.5,215,273.5z"/>
	<g>
		<path class="st2" d="M67.58,193.23L67.58,193.23c-11.98-6.92-16.12-22.37-9.2-34.35l49.72-86.13c6.92-11.98,22.37-16.12,34.35-9.2
			l0,0c11.98,6.92,16.12,22.37,9.2,34.35l-49.72,86.13C95.02,196,79.57,200.15,67.58,193.23z"/>
		<path class="st3" d="M192.45,192.87L192.45,192.87c-11.98,6.92-27.43,2.77-34.35-9.2l-49.72-86.13
			c-6.92-11.98-2.77-27.43,9.2-34.35l0,0c11.98-6.92,27.43-2.77,34.35,9.2l49.72,86.13C208.57,170.48,204.42,185.95,192.45,192.87z"
			/>
		<circle class="st4" cx="80.5" cy="171.08" r="25.5"/>
	</g>
	<path class="st5" d="M334.5,331.15c-0.77,0-1.54-0.29-2.12-0.88l-19.8-19.8c-0.56-0.56-0.88-1.33-0.88-2.12s0.32-1.56,0.88-2.12
		l5.66-5.66c0.56-0.56,1.33-0.88,2.12-0.88s1.56,0.32,2.12,0.88l19.8,19.8c1.17,1.17,1.17,3.07,0,4.24l-5.66,5.66
		C336.03,330.86,335.26,331.15,334.5,331.15z"/>
	<path class="st1" d="M320.36,302.7l19.8,19.8l-5.66,5.66l-19.8-19.8L320.36,302.7 M320.36,296.7c-1.59,0-3.12,0.63-4.24,1.76
		l-5.66,5.66c-1.13,1.13-1.76,2.65-1.76,4.24c0,1.59,0.63,3.12,1.76,4.24l19.8,19.8c1.17,1.17,2.71,1.76,4.24,1.76
		s3.07-0.59,4.24-1.76l5.66-5.66c2.34-2.34,2.34-6.14,0-8.49l-19.8-19.8C323.47,297.33,321.95,296.7,320.36,296.7L320.36,296.7z"/>
	
		<rect x="322.37" y="310.87" transform="matrix(0.7071 -0.7071 0.7071 0.7071 -126.6998 322.851)" class="st6" width="8" height="7"/>
	<path class="st5" d="M285,326c-14.16,0-27.47-5.51-37.48-15.52c-20.67-20.66-20.67-54.29,0-74.95C257.53,225.51,270.84,220,285,220
		s27.47,5.51,37.48,15.52c20.67,20.66,20.67,54.29,0,74.95C312.47,320.49,299.16,326,285,326z"/>
	<path class="st1" d="M285,223c12.8,0,25.59,4.88,35.36,14.64c19.53,19.53,19.53,51.18,0,70.71C310.59,318.12,297.8,323,285,323
		s-25.59-4.88-35.36-14.64c-19.53-19.53-19.53-51.18,0-70.71C259.41,227.88,272.2,223,285,223 M285,217
		c-14.96,0-29.02,5.83-39.6,16.4C234.83,243.98,229,258.04,229,273s5.83,29.02,16.4,39.6c10.58,10.58,24.64,16.4,39.6,16.4
		c14.96,0,29.02-5.83,39.6-16.4c10.58-10.58,16.4-24.64,16.4-39.6s-5.83-29.02-16.4-39.6C314.02,222.83,299.96,217,285,217L285,217z
		"/>
	<path class="st7" d="M285,311c-10.15,0-19.69-3.95-26.87-11.13c-14.82-14.82-14.82-38.92,0-53.74C265.31,238.95,274.85,235,285,235
		s19.69,3.95,26.87,11.13c14.82,14.82,14.82,38.92,0,53.74C304.69,307.05,295.15,311,285,311z"/>
	<path class="st1" d="M285,238c8.96,0,17.91,3.42,24.75,10.25c13.67,13.67,13.67,35.83,0,49.5C302.91,304.58,293.96,308,285,308
		s-17.91-3.42-24.75-10.25c-13.67-13.67-13.67-35.83,0-49.5C267.09,241.42,276.04,238,285,238 M285,232
		c-10.95,0-21.25,4.26-28.99,12.01C248.26,251.75,244,262.05,244,273c0,10.95,4.26,21.25,12.01,28.99
		C263.75,309.74,274.05,314,285,314c10.95,0,21.25-4.26,28.99-12.01S326,283.95,326,273c0-10.95-4.26-21.25-12.01-28.99
		C306.25,236.26,295.95,232,285,232L285,232z"/>
	<path class="st8" d="M263.79,251.79c-13.07,13.07-13.63,33.91-1.7,47.66c-0.63-0.54-1.24-1.1-1.84-1.7
		c-13.67-13.67-13.67-35.83,0-49.5c13.67-13.67,35.83-13.67,49.5,0c0.6,0.6,1.15,1.21,1.7,1.84
		C297.7,238.15,276.86,238.71,263.79,251.79z"/>
	<path class="st9" d="M363.49,367.22c-0.77,0-1.54-0.29-2.12-0.88l-32.53-32.53c-0.56-0.56-0.88-1.33-0.88-2.12s0.32-1.56,0.88-2.12
		l12.73-12.73c0.56-0.56,1.33-0.88,2.12-0.88s1.56,0.32,2.12,0.88l32.53,32.53c1.17,1.17,1.17,3.07,0,4.24l-12.73,12.73
		C365.02,366.92,364.26,367.22,363.49,367.22z"/>
	<path class="st1" d="M343.69,318.96l32.53,32.53l-12.73,12.73l-32.53-32.53L343.69,318.96 M343.69,312.96
		c-1.54,0-3.07,0.59-4.24,1.76l-12.73,12.73c-2.34,2.34-2.34,6.14,0,8.49l32.53,32.53c1.17,1.17,2.71,1.76,4.24,1.76
		c1.54,0,3.07-0.59,4.24-1.76l12.73-12.73c2.34-2.34,2.34-6.14,0-8.49l-32.53-32.53C346.76,313.55,345.23,312.96,343.69,312.96
		L343.69,312.96z"/>
	<path class="st10" d="M335.2,338.93c-0.8,0-1.56-0.32-2.12-0.88l-4.24-4.24c-1.17-1.17-1.17-3.07,0-4.24l12.73-12.73
		c0.59-0.59,1.35-0.88,2.12-0.88s1.54,0.29,2.12,0.88l4.24,4.24c0.56,0.56,0.88,1.33,0.88,2.12s-0.32,1.56-0.88,2.12l-12.73,12.73
		C336.76,338.62,336,338.93,335.2,338.93L335.2,338.93z"/>
	<path class="st1" d="M343.69,318.96l4.24,4.24l-12.73,12.73l-4.24-4.24L343.69,318.96 M343.69,312.96c-1.59,0-3.12,0.63-4.24,1.76
		l-12.73,12.73c-1.13,1.13-1.76,2.65-1.76,4.24s0.63,3.12,1.76,4.24l4.24,4.24c1.17,1.17,2.71,1.76,4.24,1.76
		c1.54,0,3.07-0.59,4.24-1.76l12.73-12.73c2.34-2.34,2.34-6.14,0-8.49l-4.24-4.24C346.81,313.59,345.28,312.96,343.69,312.96
		L343.69,312.96z"/>
	<path class="st1" d="M301.97,278.8c-0.32,0-0.64-0.08-0.94-0.24c-1.89-1.02-5.21-1.02-7.11,0c-0.98,0.52-2.19,0.16-2.71-0.82
		c-0.52-0.97-0.16-2.19,0.82-2.71c3.05-1.64,7.84-1.64,10.89,0c0.97,0.52,1.34,1.73,0.82,2.71
		C303.37,278.42,302.68,278.8,301.97,278.8z"/>
	<circle class="st1" cx="297.47" cy="269.05" r="7"/>
	<circle class="st11" cx="299.22" cy="269.05" r="1.75"/>
	<path class="st1" d="M292.49,254.04c0.61-0.55,1.11-0.88,1.72-1.22c0.6-0.32,1.22-0.59,1.88-0.8c1.32-0.41,2.78-0.57,4.26-0.39
		c1.48,0.15,2.99,0.73,4.21,1.63c1.26,0.87,2.13,2.1,2.67,3.38c0.44,1.04-0.05,2.24-1.1,2.68c-0.53,0.22-1.09,0.2-1.58,0l-0.45-0.19
		c-0.94-0.4-1.64-0.83-2.38-1.03c-0.71-0.25-1.37-0.43-2.13-0.52c-0.74-0.1-1.56-0.14-2.44-0.12c-0.44,0.01-0.91,0.02-1.37,0.06
		c-0.46,0.01-1,0.09-1.39,0.05l-0.78-0.08c-1.09-0.11-1.88-1.08-1.77-2.16C291.89,254.81,292.14,254.36,292.49,254.04z"/>
	<path class="st1" d="M275.97,278.8c-0.32,0-0.64-0.08-0.94-0.24c-1.89-1.02-5.21-1.02-7.11,0c-0.98,0.52-2.19,0.16-2.71-0.82
		c-0.52-0.97-0.16-2.19,0.82-2.71c3.05-1.64,7.84-1.64,10.89,0c0.97,0.52,1.34,1.73,0.82,2.71
		C277.37,278.42,276.68,278.8,275.97,278.8z"/>
	<circle class="st1" cx="271.47" cy="269.05" r="7"/>
	<circle class="st11" cx="273.22" cy="269.05" r="1.75"/>
	<path class="st1" d="M274.54,257.56c-0.39,0.04-0.94-0.05-1.39-0.05c-0.47-0.04-0.93-0.05-1.37-0.06c-0.89-0.02-1.7,0.02-2.44,0.12
		c-0.75,0.09-1.41,0.28-2.13,0.52c-0.74,0.21-1.43,0.64-2.38,1.03l-0.45,0.19c-1.04,0.44-2.24-0.05-2.68-1.09
		c-0.22-0.53-0.2-1.1,0-1.59c0.54-1.28,1.41-2.51,2.67-3.38c1.21-0.9,2.72-1.48,4.21-1.63c1.49-0.18,2.95-0.02,4.26,0.39
		c0.66,0.21,1.29,0.48,1.88,0.8c0.61,0.34,1.11,0.68,1.72,1.22c0.81,0.73,0.88,1.98,0.16,2.79c-0.34,0.38-0.8,0.6-1.27,0.65
		L274.54,257.56z"/>
	<path class="st1" d="M284.81,289.08c-4.96,0-10.04-1.43-14.43-4.31c-0.92-0.6-1.18-1.84-0.58-2.77c0.6-0.92,1.84-1.18,2.77-0.58
		c7.35,4.8,17.32,4.82,23.71,0.03c0.88-0.66,2.14-0.48,2.8,0.4c0.66,0.88,0.48,2.14-0.4,2.8
		C294.74,287.6,289.83,289.08,284.81,289.08z"/>
	<path class="st1" d="M280.29,291.73c1.35,0.43,2.77,0.57,4.18,0.62c0.71,0.03,1.41-0.07,2.11-0.15c0.7-0.09,1.39-0.24,2.05-0.47
		c0.69-0.24,1.45,0.13,1.68,0.82c0.17,0.48,0.04,1-0.29,1.34l-0.72,0.76c-0.67,0.71-1.48,1.09-2.3,1.37
		c-0.83,0.24-1.69,0.36-2.54,0.31c-0.43-0.02-0.85-0.04-1.27-0.13c-0.42-0.06-0.84-0.17-1.25-0.3c-0.81-0.27-1.6-0.64-2.3-1.25
		l-0.67-0.59c-0.57-0.5-0.63-1.37-0.13-1.94C279.21,291.71,279.79,291.57,280.29,291.73z"/>
	<path class="st11" d="M20,378c-3.31,0-6-2.69-6-6V258c0-3.31,2.69-6,6-6h114c3.31,0,6,2.69,6,6v97c0,0.8-0.32,1.56-0.88,2.12
		l-20,20c-0.56,0.56-1.33,0.88-2.12,0.88H20z"/>
	<path class="st1" d="M134,255c1.66,0,3,1.34,3,3v97l-20,20H20c-1.66,0-3-1.34-3-3V258c0-1.66,1.34-3,3-3H134 M134,249H20
		c-4.96,0-9,4.04-9,9v114c0,4.96,4.04,9,9,9h97c1.59,0,3.12-0.63,4.24-1.76l20-20c1.13-1.13,1.76-2.65,1.76-4.24v-97
		C143,253.04,138.96,249,134,249L134,249z"/>
	<path class="st12" d="M109.5,320h-75c-1.38,0-2.5-1.12-2.5-2.5l0,0c0-1.38,1.12-2.5,2.5-2.5h75c1.38,0,2.5,1.12,2.5,2.5l0,0
		C112,318.88,110.88,320,109.5,320z"/>
	<path class="st1" d="M99.5,340h-65c-1.38,0-2.5-1.12-2.5-2.5l0,0c0-1.38,1.12-2.5,2.5-2.5h65c1.38,0,2.5,1.12,2.5,2.5l0,0
		C102,338.88,100.88,340,99.5,340z"/>
	<path class="st1" d="M85.5,350h-51c-1.38,0-2.5-1.12-2.5-2.5l0,0c0-1.38,1.12-2.5,2.5-2.5h51c1.38,0,2.5,1.12,2.5,2.5l0,0
		C88,348.88,86.88,350,85.5,350z"/>
	<path class="st1" d="M69.5,360h-35c-1.38,0-2.5-1.12-2.5-2.5l0,0c0-1.38,1.12-2.5,2.5-2.5h35c1.38,0,2.5,1.12,2.5,2.5l0,0
		C72,358.88,70.88,360,69.5,360z"/>
	<path class="st13" d="M91.5,330h-57c-1.38,0-2.5-1.12-2.5-2.5l0,0c0-1.38,1.12-2.5,2.5-2.5h57c1.38,0,2.5,1.12,2.5,2.5l0,0
		C94,328.88,92.88,330,91.5,330z"/>
	<path class="st7" d="M117,378c-0.39,0-0.78-0.07-1.15-0.23c-1.12-0.46-1.85-1.56-1.85-2.77v-17c0-3.31,2.69-6,6-6h17
		c1.21,0,2.31,0.73,2.77,1.85c0.46,1.12,0.21,2.41-0.65,3.27l-20,20C118.55,377.7,117.78,378,117,378z"/>
	<path class="st1" d="M137,355l-20,20v-17c0-1.66,1.34-3,3-3H137 M137,349h-17c-4.96,0-9,4.04-9,9v17c0,2.43,1.46,4.61,3.7,5.54
		c0.74,0.31,1.52,0.46,2.29,0.46c1.56,0,3.1-0.61,4.24-1.76l20-20c1.72-1.72,2.23-4.3,1.3-6.54C141.61,350.46,139.43,349,137,349
		L137,349z M137,361L137,361L137,361L137,361z"/>
	<circle class="st14" cx="103" cy="294" r="2"/>
	<circle class="st14" cx="111" cy="294" r="2"/>
	<circle class="st14" cx="107" cy="286" r="2"/>
	<circle class="st14" cx="43" cy="294" r="2"/>
	<circle class="st14" cx="51" cy="294" r="2"/>
	<circle class="st14" cx="47" cy="286" r="2"/>
	<path class="st1" d="M92.03,288.78c-0.16,0-0.33-0.03-0.49-0.08c-1.6-0.55-4.42-0.55-6.02,0c-0.78,0.27-1.64-0.15-1.91-0.93
		c-0.27-0.78,0.15-1.64,0.93-1.91c2.24-0.77,5.74-0.77,7.98,0c0.78,0.27,1.2,1.12,0.93,1.91C93.23,288.39,92.65,288.78,92.03,288.78
		z"/>
	<circle class="st1" cx="88.53" cy="280.59" r="6"/>
	<circle class="st11" cx="90.03" cy="280.59" r="1.5"/>
	<path class="st1" d="M85.09,266.65c0.97-0.61,1.86-0.91,2.88-1.12c0.99-0.21,2.03-0.24,3.08-0.12c1.04,0.11,2.1,0.44,3.07,0.95
		c0.97,0.5,1.83,1.28,2.42,2.19c0.52,0.8,0.29,1.86-0.51,2.38c-0.38,0.24-0.81,0.32-1.22,0.25l-0.4-0.07
		c-0.78-0.13-1.39-0.32-2.04-0.43c-0.65-0.1-1.27-0.25-1.96-0.33l-2.11-0.25c-0.72-0.08-1.55-0.12-2.25-0.28l-0.42-0.09
		c-0.92-0.2-1.5-1.11-1.29-2.02C84.44,267.26,84.72,266.88,85.09,266.65z"/>
	<path class="st1" d="M61.97,288.78c-0.62,0-1.2-0.39-1.42-1.01c-0.27-0.78,0.15-1.64,0.93-1.91c2.24-0.77,5.74-0.77,7.98,0
		c0.78,0.27,1.2,1.12,0.93,1.91c-0.27,0.78-1.12,1.2-1.91,0.93c-1.6-0.55-4.42-0.55-6.02,0C62.3,288.75,62.14,288.78,61.97,288.78z"
		/>
	<circle class="st1" cx="65.47" cy="280.59" r="6"/>
	<circle class="st11" cx="66.97" cy="280.59" r="1.5"/>
	<path class="st1" d="M67.94,269.84c-0.7,0.15-1.53,0.2-2.25,0.28l-2.11,0.25c-0.68,0.08-1.31,0.22-1.96,0.33
		c-0.65,0.11-1.26,0.3-2.04,0.43l-0.39,0.07c-0.94,0.16-1.83-0.47-1.98-1.41c-0.07-0.44,0.03-0.87,0.25-1.22
		c0.59-0.92,1.45-1.69,2.42-2.19c0.96-0.52,2.02-0.84,3.07-0.95c1.04-0.12,2.08-0.08,3.08,0.12c1.01,0.21,1.9,0.51,2.88,1.12
		c0.79,0.5,1.03,1.55,0.54,2.34c-0.25,0.4-0.64,0.66-1.07,0.76L67.94,269.84z"/>
	<path class="st1" d="M77.31,299.97c-4.55,0-9.21-1.07-13.25-3.21c-0.98-0.52-1.35-1.73-0.83-2.71c0.52-0.97,1.73-1.35,2.7-0.83
		c6.83,3.63,16.09,3.64,22.02,0.03c0.94-0.58,2.17-0.28,2.75,0.67c0.57,0.94,0.27,2.17-0.67,2.75
		C86.43,298.87,81.93,299.97,77.31,299.97z"/>
	<path class="st1" d="M73.26,303.08c1.22,0.34,2.49,0.43,3.75,0.48c0.63,0.03,1.26-0.05,1.89-0.12c0.63-0.07,1.25-0.18,1.85-0.36
		c0.68-0.21,1.4,0.17,1.61,0.85c0.14,0.45,0.01,0.92-0.29,1.25l-0.79,0.85c-0.61,0.66-1.32,1-2.04,1.25
		c-0.73,0.21-1.48,0.32-2.23,0.27c-0.37-0.02-0.75-0.04-1.12-0.11c-0.37-0.06-0.74-0.15-1.09-0.27c-0.72-0.24-1.42-0.57-2.04-1.13
		L72,305.38c-0.55-0.49-0.6-1.34-0.11-1.89C72.24,303.08,72.78,302.95,73.26,303.08z"/>
	<path class="st1" d="M285,218.5c-0.83,0-1.5-0.67-1.5-1.5v-5c0-0.83,0.67-1.5,1.5-1.5s1.5,0.67,1.5,1.5v5
		C286.5,217.83,285.83,218.5,285,218.5z M285,204.5c-0.83,0-1.5-0.67-1.5-1.5v-5c0-0.83,0.67-1.5,1.5-1.5s1.5,0.67,1.5,1.5v5
		C286.5,203.83,285.83,204.5,285,204.5z M288.03,191.33c-0.39,0-0.78-0.15-1.08-0.45c-0.58-0.59-0.56-1.54,0.03-2.12
		c1.38-1.34,3.09-2.32,4.93-2.84c0.8-0.22,1.62,0.25,1.85,1.04c0.22,0.8-0.25,1.62-1.04,1.85c-1.36,0.38-2.62,1.1-3.64,2.1
		C288.79,191.19,288.41,191.33,288.03,191.33z M306.29,188.5h-5c-0.83,0-1.5-0.67-1.5-1.5s0.67-1.5,1.5-1.5h5
		c0.83,0,1.5,0.67,1.5,1.5S307.11,188.5,306.29,188.5z M314.88,186.59c-0.46,0-0.92-0.21-1.21-0.62c-0.49-0.67-0.34-1.61,0.33-2.1
		c1.15-0.84,2.08-1.96,2.69-3.24c0.36-0.75,1.25-1.07,2-0.71c0.75,0.35,1.07,1.25,0.71,2c-0.82,1.73-2.08,3.25-3.63,4.38
		C315.5,186.5,315.19,186.59,314.88,186.59z M319,173.93c-0.83,0-1.5-0.67-1.5-1.5v-5c0-0.83,0.67-1.5,1.5-1.5s1.5,0.67,1.5,1.5v5
		C320.5,173.26,319.83,173.93,319,173.93z M319,159.93c-0.83,0-1.5-0.67-1.5-1.5v-5c0-0.83,0.67-1.5,1.5-1.5s1.5,0.67,1.5,1.5v5
		C320.5,159.26,319.83,159.93,319,159.93z"/>
	<path class="st11" d="M262,150c-3.31,0-6-2.69-6-6V30c0-3.31,2.69-6,6-6h114c3.31,0,6,2.69,6,6v97c0,0.8-0.32,1.56-0.88,2.12
		l-20,20c-0.56,0.56-1.33,0.88-2.12,0.88H262z"/>
	<path class="st1" d="M376,27c1.66,0,3,1.34,3,3v97l-20,20h-97c-1.66,0-3-1.34-3-3V30c0-1.66,1.34-3,3-3H376 M376,21H262
		c-4.96,0-9,4.04-9,9v114c0,4.96,4.04,9,9,9h97c1.59,0,3.12-0.63,4.24-1.76l20-20c1.13-1.13,1.76-2.65,1.76-4.24V30
		C385,25.04,380.96,21,376,21L376,21z"/>
	<path class="st12" d="M345.5,92h-69c-1.38,0-2.5-1.12-2.5-2.5l0,0c0-1.38,1.12-2.5,2.5-2.5h69c1.38,0,2.5,1.12,2.5,2.5l0,0
		C348,90.88,346.88,92,345.5,92z"/>
	<path class="st1" d="M331.5,112h-55c-1.38,0-2.5-1.12-2.5-2.5l0,0c0-1.38,1.12-2.5,2.5-2.5h55c1.38,0,2.5,1.12,2.5,2.5l0,0
		C334,110.88,332.88,112,331.5,112z"/>
	<path class="st1" d="M341.5,122h-65c-1.38,0-2.5-1.12-2.5-2.5l0,0c0-1.38,1.12-2.5,2.5-2.5h65c1.38,0,2.5,1.12,2.5,2.5l0,0
		C344,120.88,342.88,122,341.5,122z"/>
	<path class="st1" d="M321.5,132h-45c-1.38,0-2.5-1.12-2.5-2.5l0,0c0-1.38,1.12-2.5,2.5-2.5h45c1.38,0,2.5,1.12,2.5,2.5l0,0
		C324,130.88,322.88,132,321.5,132z"/>
	<path class="st13" d="M339.5,102h-63c-1.38,0-2.5-1.12-2.5-2.5l0,0c0-1.38,1.12-2.5,2.5-2.5h63c1.38,0,2.5,1.12,2.5,2.5l0,0
		C342,100.88,340.88,102,339.5,102z"/>
	<path class="st7" d="M359,150c-0.39,0-0.78-0.07-1.15-0.23c-1.12-0.46-1.85-1.56-1.85-2.77v-17c0-3.31,2.69-6,6-6h17
		c1.21,0,2.31,0.73,2.77,1.85c0.46,1.12,0.21,2.41-0.65,3.27l-20,20C360.55,149.7,359.78,150,359,150z"/>
	<path class="st1" d="M379,127l-20,20v-17c0-1.66,1.34-3,3-3H379 M379,121h-17c-4.96,0-9,4.04-9,9v17c0,2.43,1.46,4.61,3.7,5.54
		c0.74,0.31,1.52,0.46,2.29,0.46c1.56,0,3.1-0.61,4.24-1.76l20-20c1.72-1.72,2.23-4.3,1.3-6.54C383.61,122.46,381.43,121,379,121
		L379,121z M379,133L379,133L379,133L379,133z"/>
	<path class="st1" d="M334.53,56.59c-1.1,0-2-0.9-2-2c0-1.65-1.35-3-3-3s-3,1.35-3,3c0,1.1-0.9,2-2,2s-2-0.9-2-2c0-3.86,3.14-7,7-7
		s7,3.14,7,7C336.53,55.69,335.63,56.59,334.53,56.59z"/>
	<path class="st1" d="M327.09,38.65c0.97-0.61,1.86-0.91,2.88-1.12c0.99-0.21,2.03-0.24,3.08-0.12c1.04,0.11,2.1,0.44,3.07,0.95
		c0.97,0.5,1.83,1.28,2.42,2.19c0.52,0.8,0.29,1.86-0.51,2.38c-0.38,0.24-0.81,0.32-1.22,0.25l-0.4-0.07
		c-0.78-0.13-1.39-0.32-2.04-0.43c-0.65-0.1-1.27-0.25-1.96-0.33l-2.11-0.25c-0.72-0.08-1.55-0.12-2.25-0.28l-0.42-0.09
		c-0.92-0.2-1.5-1.11-1.29-2.02C326.44,39.26,326.72,38.88,327.09,38.65z"/>
	<path class="st1" d="M313.47,56.59c-1.1,0-2-0.9-2-2c0-1.65-1.35-3-3-3s-3,1.35-3,3c0,1.1-0.9,2-2,2s-2-0.9-2-2c0-3.86,3.14-7,7-7
		s7,3.14,7,7C315.47,55.69,314.58,56.59,313.47,56.59z"/>
	<path class="st1" d="M309.94,41.84c-0.7,0.15-1.53,0.2-2.25,0.28l-2.11,0.25c-0.68,0.08-1.3,0.22-1.96,0.33
		c-0.65,0.11-1.26,0.3-2.04,0.43l-0.39,0.07c-0.94,0.16-1.83-0.47-1.98-1.41c-0.07-0.44,0.03-0.87,0.25-1.22
		c0.59-0.92,1.45-1.69,2.42-2.19c0.96-0.52,2.02-0.84,3.07-0.95c1.04-0.12,2.08-0.08,3.08,0.12c1.01,0.21,1.9,0.51,2.88,1.12
		c0.79,0.5,1.03,1.55,0.54,2.34c-0.25,0.4-0.64,0.66-1.07,0.76L309.94,41.84z"/>
	<path class="st1" d="M331.01,60h-24c-2.21,0-4,1.79-4,4c0,8.82,7.18,16,16,16c8.77,0,15.91-7.09,16-15.84c0-0.05,0-0.11,0-0.16
		C335,61.79,333.21,60,331.01,60z"/>
	<ellipse class="st15" cx="319" cy="72" rx="8.93" ry="4"/>
	<circle class="st14" cx="345" cy="66" r="2"/>
	<circle class="st14" cx="353" cy="66" r="2"/>
	<circle class="st14" cx="349" cy="58" r="2"/>
	<circle class="st14" cx="285" cy="66" r="2"/>
	<circle class="st14" cx="293" cy="66" r="2"/>
	<circle class="st14" cx="289" cy="58" r="2"/>
	<path class="st10" d="M208.4,80.4c-2.65,0-4.8-2.15-4.8-4.8c0-0.88-0.72-1.6-1.6-1.6c-0.88,0-1.6,0.72-1.6,1.6
		c0,2.65-2.15,4.8-4.8,4.8c-0.88,0-1.6,0.72-1.6,1.6s0.72,1.6,1.6,1.6c2.65,0,4.8,2.15,4.8,4.8c0,0.88,0.72,1.6,1.6,1.6
		c0.88,0,1.6-0.72,1.6-1.6c0-2.65,2.15-4.8,4.8-4.8c0.88,0,1.6-0.72,1.6-1.6S209.28,80.4,208.4,80.4z"/>
	<circle class="st10" cx="196.5" cy="112.5" r="2.5"/>
	<circle class="st10" cx="229" cy="105" r="3"/>
	<path class="st10" d="M90,222h-7v-7c0-1.66-1.34-3-3-3s-3,1.34-3,3v7h-7c-1.66,0-3,1.34-3,3s1.34,3,3,3h7v7c0,1.66,1.34,3,3,3
		s3-1.34,3-3v-7h7c1.66,0,3-1.34,3-3S91.66,222,90,222z"/>
	<path class="st10" d="M83.2,63.2c-2.98,0-5.4-2.42-5.4-5.4c0-0.99-0.81-1.8-1.8-1.8c-0.99,0-1.8,0.81-1.8,1.8
		c0,2.98-2.42,5.4-5.4,5.4c-0.99,0-1.8,0.81-1.8,1.8s0.81,1.8,1.8,1.8c2.98,0,5.4,2.42,5.4,5.4c0,0.99,0.81,1.8,1.8,1.8
		c0.99,0,1.8-0.81,1.8-1.8c0-2.98,2.42-5.4,5.4-5.4c0.99,0,1.8-0.81,1.8-1.8S84.19,63.2,83.2,63.2z"/>
	<circle class="st10" cx="109" cy="40" r="3"/>
	<circle class="st10" cx="42.5" cy="198.5" r="4.5"/>
</g>
</svg>
